<?xml version="1.0" standalone="no"?>
<!DOCTYPE svg PUBLIC "-//W3C//DTD SVG 20010904//EN"
 "http://www.w3.org/TR/2001/REC-SVG-20010904/DTD/svg10.dtd">
<svg version="1.0" xmlns="http://www.w3.org/2000/svg"
 width="200.000000pt" height="200.000000pt" viewBox="0 0 200.000000 200.000000"
 preserveAspectRatio="xMidYMid meet">

<g transform="translate(0.000000,200.000000) scale(0.100000,-0.100000)"
fill="#000000" stroke="none">
<path d="M0 1000 l0 -1000 1000 0 1000 0 0 1000 0 1000 -1000 0 -1000 0 0
-1000z m1078 702 c72 -28 144 -85 195 -155 32 -45 46 -57 62 -53 11 3 45 12
75 21 40 12 76 15 130 11 182 -14 323 -144 360 -331 32 -163 -65 -341 -227
-418 l-68 -32 -665 -3 c-457 -2 -677 0 -702 8 -54 15 -98 57 -125 117 -29 68
-29 82 3 149 25 53 89 114 120 114 6 0 24 20 38 44 42 72 100 113 203 142 7 1
15 20 18 41 23 139 112 265 228 324 102 52 250 61 355 21z"/>
</g>
</svg>
