<?xml version="1.0" standalone="no"?>
<!DOCTYPE svg PUBLIC "-//W3C//DTD SVG 20010904//EN"
 "http://www.w3.org/TR/2001/REC-SVG-20010904/DTD/svg10.dtd">
<svg version="1.0" xmlns="http://www.w3.org/2000/svg"
 width="200.000000pt" height="200.000000pt" viewBox="0 0 200.000000 200.000000"
 preserveAspectRatio="xMidYMid meet">

<g transform="translate(0.000000,200.000000) scale(0.100000,-0.100000)"
fill="#000000" stroke="none">
<path d="M0 1000 l0 -1000 1000 0 1000 0 0 1000 0 1000 -1000 0 -1000 0 0
-1000z m1012 729 c109 -23 209 -90 272 -182 l38 -55 42 18 c65 29 160 35 236
16 128 -33 216 -106 274 -226 28 -59 31 -74 31 -165 0 -91 -3 -106 -31 -165
-54 -115 -133 -183 -252 -220 -61 -19 -95 -20 -706 -20 -416 0 -654 4 -679 11
-81 22 -146 111 -147 198 0 80 60 168 131 193 15 5 32 22 39 38 24 58 147 149
202 150 18 0 22 10 33 75 11 62 52 140 105 197 109 120 259 169 412 137z
m-242 -1264 c0 -149 -2 -175 -15 -175 -13 0 -15 26 -15 175 0 149 2 175 15
175 13 0 15 -26 15 -175z m820 0 c0 -149 -2 -175 -15 -175 -8 0 -15 7 -15 15
0 11 -7 10 -35 -6 -46 -27 -93 -19 -135 22 -25 25 -30 39 -30 76 0 38 5 50 34
79 28 28 42 34 75 34 23 0 53 -7 66 -16 l25 -16 0 81 c0 65 3 81 15 81 13 0
15 -26 15 -175z m-952 145 c41 -18 55 -44 30 -53 -7 -2 -24 4 -37 14 -31 25
-88 24 -129 -1 -81 -49 -79 -182 2 -235 36 -24 102 -22 138 5 35 26 62 14 37
-16 -38 -47 -123 -56 -189 -21 -131 69 -114 262 27 312 51 19 70 18 121 -5z
m388 -134 c29 -29 34 -41 34 -79 0 -118 -164 -157 -214 -52 -20 41 -20 68 -1
105 21 42 53 60 103 60 37 0 50 -6 78 -34z m134 -56 c5 -77 7 -86 29 -96 55
-28 89 22 90 129 1 44 4 57 16 57 12 0 15 -19 15 -110 0 -91 -3 -110 -15 -110
-8 0 -15 7 -15 17 0 14 -2 15 -17 1 -29 -24 -54 -29 -88 -18 -43 14 -55 45
-55 141 0 71 2 80 18 77 14 -3 18 -18 22 -88z"/>
<path d="M1427 468 c-29 -22 -38 -72 -19 -109 43 -85 174 -26 143 63 -6 17
-19 37 -28 44 -23 17 -74 18 -96 2z"/>
<path d="M891 454 c-39 -49 -16 -132 37 -135 74 -5 115 44 91 110 -22 56 -93
70 -128 25z"/>
</g>
</svg>
